# xmcd
#
# Track frame offsets:
#	150
#	21262
#	45145
#	70952
#	93315
#	111435
#	127952
#	146497
#	171682
#	190625
#	218790
# Disc length: 3139 seconds
# Revision: 4
# Processed by: cddbd v1.5.1PL0 Copyright (c) Steve Scherf et al.
#
# Submitted via: libkcddb 0.10
#
DISCID=9a0c410b
DTITLE=Twila Paris - Where I Stand
DYEAR=1996
DGENRE=Contemporary Christian
TTITLE0=Love's Been Following You
TTITLE1=Hold On
TTITLE2=Band Of Survivors
TTITLE3=Faithful Friend
TTITLE4=Jesus In You
TTITLE5=Honor And Praise
TTITLE6=(I Am) Not Afraid Anymore
TTITLE7=What Did He Die For?
TTITLE8=House Of Cards
TTITLE9=I Never Get Used To What You Do
TTITLE10=I Will Listen
EXTD=YEAR: 1996
EXTT0=
EXTT1=
EXTT2=
EXTT3=
EXTT4=
EXTT5=
EXTT6=
EXTT7=
EXTT8=
EXTT9=
EXTT10=
PLAYORDER=
